<svg width="34" height="34" viewBox="0 0 35 35">
    <rect opacity="0.5" x="1.56567" y="2.15002" width="31.6838" height="30.7083" fill="url(#pattern0)"></rect>
    <rect opacity="0.5" x="0.729736" y="4.84882" width="33.364" height="29.1552" fill="url(#pattern1)"></rect>
    <path d="M25.3094 0.179688H9.51386C5.39535 0.179688 2.05664 3.61957 2.05664 7.86288V24.1371C2.05664 28.3804 5.39535 31.8203 9.51386 31.8203H25.3094C29.428 31.8203 32.7667 28.3804 32.7667 24.1371V7.86288C32.7667 3.61957 29.428 0.179688 25.3094 0.179688Z"
          fill="url(#paint0_radial_803_119)"></path>
    <path fill-rule="evenodd" clip-rule="evenodd"
          d="M17.4267 4.22748C11.1075 4.22748 5.98535 9.5041 5.98535 16.0155C5.98535 22.5268 11.1075 27.8035 17.4267 27.8035C23.7459 27.8035 28.8679 22.5268 28.8679 16.0155C28.8679 9.5041 23.7459 4.22748 17.4267 4.22748Z"
          fill="#E57CD8"></path>
    <path fill-rule="evenodd" clip-rule="evenodd" d="M16.5854 17.0753H18.2684V8.47369H16.5854V17.0753Z"
          fill="#2C1338"></path>
    <path fill-rule="evenodd" clip-rule="evenodd"
          d="M17.4267 22.3487C14.1928 22.3487 11.5693 19.6453 11.5693 16.3129C11.5693 13.5314 13.395 11.1914 15.8795 10.4904V12.2441C14.3016 12.8816 13.1856 14.4624 13.1856 16.3129C13.1856 18.7259 15.085 20.6832 17.4267 20.6832C19.7688 20.6832 21.6684 18.7259 21.6684 16.3129C21.6684 14.4624 20.5515 12.8816 18.9754 12.2441V10.4904C21.4581 11.1914 23.2844 13.5314 23.2844 16.3129C23.2844 19.6453 20.6615 22.3487 17.4267 22.3487Z"
          fill="#2C1338"></path>
    <defs>
        <pattern id="pattern0" patternContentUnits="objectBoundingBox" width="1" height="1">
            <use xlink:href="#image0_803_119" transform="scale(0.00108225 0.00114943)"></use>
        </pattern>
        <pattern id="pattern1" patternContentUnits="objectBoundingBox" width="1" height="1">
            <use xlink:href="#image1_803_119" transform="scale(0.00102775 0.00121065)"></use>
        </pattern>
        <radialGradient id="paint0_radial_803_119" cx="0" cy="0" r="1" gradientUnits="userSpaceOnUse"
                        gradientTransform="translate(17.4117 16) rotate(90) scale(15.8203 15.4332)">
            <stop stop-color="#412A4C"></stop>
            <stop offset="0.00428027" stop-color="#412A4C"></stop>
            <stop offset="1" stop-color="#2C1338"></stop>
        </radialGradient>
    </defs>
</svg>
